<mxfile host="app.diagrams.net" modified="2024-02-05T08:10:58.743Z" agent="Mozilla/5.0 (Windows NT 10.0; Win64; x64) AppleWebKit/537.36 (KHTML, like Gecko) Chrome/121.0.0.0 Safari/537.36 Edg/121.0.0.0" version="23.1.1" etag="L3E9oGIGEOyuDUYoZ6pK" type="github">
  <diagram name="Page-1" id="Mw9g5Kc8EXyRMrKPpOMI">
    <mxGraphModel>
      <root>
        <mxCell id="0" />
        <mxCell id="1" parent="0" />
      </root>
    </mxGraphModel>
  </diagram>
</mxfile>
